/* XPM */
static char *graphic[] = {
/* width height num_colors chars_per_pixel */
"32 32 529 2", 
/* colors */
"   c None",
".  c #E6ECE8",
"X  c #5DA160",
"o  c #D0D0D1",
"O  c #C6CBC8",
"+  c #2A8155",
"@  c #3C8A4E",
"#  c #30883A",
"$  c #499362",
"%  c #E1E2E3",
"&  c #549A50",
"*  c #C7DDBB",
"=  c #6BAF3B",
"-  c #4E966D",
";  c #71B054",
":  c #B8C2BA",
">  c #DDDEDE",
",  c #95C756",
"<  c #ECEFEE",
"1  c #90C64D",
"2  c #77B544",
"3  c #A3ACA3",
"4  c #49993D",
"5  c #29823D",
"6  c #B5B9B7",
"7  c #FBFCFB",
"8  c #A8A9A9",
"9  c #FDFDFD",
"0  c #464547",
"q  c #96C09D",
"w  c #B5BEB0",
"e  c #AAAAAB",
"r  c #ECEDED",
"t  c #686769",
"y  c #9EC274",
"u  c #5DA53C",
"i  c #449543",
"p  c #EEEEEF",
"a  c #9AA997",
"s  c #58A33B",
"d  c #52A03C",
"f  c None",
"g  c None",
"h  c None",
"j  c #EAEAEA",
"k  c #5EA269",
"l  c #6C9B81",
"z  c #62A26B",
"x  c None",
"c  c #E4EEDF",
"v  c None",
"b  c #ECEBEC",
"n  c #B9B9BA",
"m  c #60A36B",
"M  c #DBDBDC",
"N  c #8CC154",
"B  c #28814B",
"V  c #A9AFAA",
"C  c #5FA16F",
"Z  c #DDE7DC",
"A  c #98C497",
"S  c #267D52",
"D  c None",
"F  c #F9F9F9",
"G  c #66A671",
"H  c #4A9656",
"J  c #207E3C",
"K  c #E8E9E9",
"L  c #B7D2B8",
"P  c #A5B3AC",
"I  c #F1F5F2",
"U  c #A3AF9C",
"Y  c #B2B7B0",
"T  c #729D7B",
"R  c #EBF0EB",
"E  c None",
"W  c #1A783D",
"Q  c #717172",
"!  c #398E3A",
"~  c None",
"^  c #B4D4B3",
"/  c #0E713D",
"(  c #56A03A",
")  c #F7F8F8",
"_  c #D1E1D2",
"`  c #9DB795",
"'  c #D1E4C9",
"]  c #1C7C39",
"[  c None",
"{  c #8DBA6D",
"}  c #8FAE9E",
"|  c None",
" . c #9BACA2",
".. c #4D9C3E",
"X. c #BEC4B6",
"o. c #92BF91",
"O. c None",
"+. c #509D3C",
"@. c #B0BEB6",
"#. c #D3D3D3",
"$. c #4E9950",
"%. c #F5F5F5",
"&. c #318940",
"*. c None",
"=. c #E4E5E5",
"-. c #3E903B",
";. c #5B9D54",
":. c None",
">. c #5AA15D",
",. c #96B977",
"<. c #BAC1BE",
"1. c #C4C9BE",
"2. c None",
"3. c #A7CCAD",
"4. c #3E903F",
"5. c #D1D2D2",
"6. c #F3F4F4",
"7. c #AACBA8",
"8. c #5CA248",
"9. c #66A65C",
"0. c #EDEFED",
"q. c #E4E5E6",
"w. c #6B6A6B",
"e. c #569272",
"r. c #509D3C",
"t. c #63A655",
"y. c #8D8C8D",
"u. c #5A5A5B",
"i. c #BEBFBF",
"p. c #F1F1F1",
"a. c #9E9E9F",
"s. c #E0E1E1",
"d. c #469069",
"f. c #B0D1A5",
"g. c #C4C9BF",
"h. c #A4C085",
"j. c #E9EDEA",
"k. c #76B364",
"l. c #87B568",
"z. c #63AB3B",
"x. c #E1E9E3",
"c. c None",
"v. c #3A8D3E",
"b. c #B7BBB3",
"n. c #388D3B",
"m. c #469456",
"M. c #7EAA6C",
"N. c #6B6A6C",
"B. c #EFF0F0",
"V. c #E5EBE7",
"C. c #ABCE9B",
"Z. c #4D9A3F",
"A. c #61A73F",
"S. c #EDEDED",
"D. c #2A804F",
"F. c #227D3D",
"G. c #6AA96E",
"H. c #7A797B",
"J. c #73B43C",
"K. c #308839",
"L. c #9AC972",
"P. c #85C043",
"I. c #DEDEDF",
"U. c #669A6B",
"Y. c #519E3C",
"T. c #49945E",
"R. c #9EB8A0",
"E. c #F5FAF1",
"W. c #C1DCA7",
"Q. c #454446",
"!. c #2C833C",
"~. c #59A059",
"^. c #EBECEC",
"/. c #5EA73B",
"(. c #ACB9A8",
"). c #C8CBC5",
"_. c #89BF68",
"`. c #107339",
"'. c #649875",
"]. c #A2ABA3",
"[. c #E9E9E9",
"{. c #F3F9F0",
"}. c #D8D9D9",
"|. c #98C687",
" X c #A9CD9B",
".X c #969697",
"XX c #545355",
"oX c #B3D1AF",
"OX c #B8B8B9",
"+X c #D8E4D7",
"@X c #6EAC51",
"#X c #84AC96",
"$X c #8BC053",
"%X c #B9C1B0",
"&X c #479548",
"*X c #F9FCF6",
"=X c None",
"-X c #157538",
";X c #F8F8F8",
":X c #B1BDA9",
">X c #414042",
",X c #C5C6C6",
"<X c #428F5E",
"1X c #CFE2C0",
"2X c #9CC6A1",
"3X c #E7E8E8",
"4X c None",
"5X c #67A672",
"6X c #C2C6BF",
"7X c #328A3A",
"8X c #E5E5E5",
"9X c #68AD3C",
"0X c #2B8239",
"qX c #72B242",
"wX c #3B8E3B",
"eX c #F6F7F7",
"rX c #5FA54B",
"tX c #87B275",
"yX c #278239",
"uX c #499746",
"iX c #B5BDAC",
"pX c None",
"aX c #E7E8E9",
"sX c #338656",
"dX c #5D5D5E",
"fX c #D7E7D5",
"gX c None",
"hX c #F4F4F4",
"jX c #7F7F80",
"kX c None",
"lX c #5F5E60",
"zX c #E3E4E4",
"xX c #C3C3C4",
"cX c #70B141",
"vX c #B3BFB9",
"bX c #90C455",
"nX c #9FC79F",
"mX c None",
"MX c #1B7B38",
"NX c #E5E5E6",
"BX c #78B63E",
"VX c #207C3F",
"CX c #62A45E",
"ZX c #ADC195",
"AX c #A1BE81",
"SX c #4E9C41",
"DX c #78AB86",
"FX c #F0F2F1",
"GX c None",
"HX c #F2F3F3",
"JX c #30883A",
"KX c #B3BDB8",
"LX c #F4F4F5",
"PX c #AEBCAF",
"IX c #FFFFFE",
"UX c #6A696A",
"YX c #348A3E",
"TX c #D8E4DA",
"RX c #479643",
"EX c #CBE4AB",
"WX c None",
"QX c #F0F0F0",
"!X c #7DB75F",
"~X c #E7EFE5",
"^X c #6AA771",
"/X c #328A3B",
"(X c #DFE0E0",
")X c #9D9D9E",
"_X c #E1E1E2",
"`X c #3A8D44",
"'X c #D0D1D2",
"]X c #7FBB41",
"[X c #99BC7D",
"{X c #ECEEED",
"}X c #AAABAB",
"|X c #FFFFFF",
" o c #3D913B",
".o c #D7D8D6",
"Xo c #ACACAD",
"oo c #EEEFEF",
"Oo c #5FA055",
"+o c #C1D8C0",
"@o c None",
"#o c #CDE5AE",
"$o c #84A695",
"%o c #F6FAF1",
"&o c #529F3C",
"*o c #90AA87",
"=o c #ECECEC",
"-o c #97B885",
";o c #5DA43B",
":o c #575658",
">o c #DBDCDC",
",o c #7AB742",
"<o c #6A9F83",
"1o c #1E7C38",
"2o c #DDDDDE",
"3o c #A9B0AA",
"4o c #4E8F68",
"5o c None",
"6o c #57A23D",
"7o c #E5EEE5",
"8o c None",
"9o c None",
"0o c #F4F9F0",
"qo c #FBFBFB",
"wo c #64A94F",
"eo c #A8A8A9",
"ro c #EAEBEB",
"to c #666567",
"yo c #539E3A",
"uo c #34893A",
"io c #D9E6D9",
"po c #DBDCDD",
"ao c None",
"so c #398C57",
"do c #535254",
"fo c #3A8D3A",
"go c #F9FAFA",
"ho c #7EB47D",
"jo c None",
"ko c #D9D9DA",
"lo c #979698",
"zo c #44904E",
"xo c #338848",
"co c #D3D4D3",
"vo c None",
"bo c #F5F6F5",
"no c #78B642",
"mo c #59A340",
"Mo c #B5C0A8",
"No c #F7F7F7",
"Bo c None",
"Vo c #C4C5C5",
"Co c #EAF0E5",
"Zo c #E6E7E7",
"Ao c #9FB1A8",
"So c None",
"Do c #459346",
"Fo c #8FC36A",
"Go c #E8E8E9",
"Ho c #BAC2BE",
"Jo c #8DAF7B",
"Ko c #48954A",
"Lo c #388D3B",
"Po c #97A79C",
"Io c #11733B",
"Uo c #79B453",
"Yo c #A5C8A8",
"To c #F5F6F6",
"Ro c #EDF0ED",
"Eo c #F7F7F8",
"Wo c #4C9B3D",
"Qo c None",
"!o c #F1F2F1",
"~o c #639776",
"^o c #BEC0BF",
"/o c #9E9F9F",
"(o c #F3F3F3",
")o c #97C75B",
"_o c #75B250",
"`o c #E2E3E3",
"'o c #C1C7C1",
"]o c #C2C2C3",
"[o c #8CBF78",
"{o c #549366",
"}o c #318939",
"|o c #BBC2BA",
" O c #CADFBD",
".O c #EDF0EE",
"XO c #A8CDA9",
"oO c #298439",
"OO c #78B644",
"+O c #5CA254",
"@O c #238039",
"#O c #59A43D",
"$O c #EFF1F0",
"%O c #62A83D",
"&O c #CFD0D0",
"*O c #F1F2F2",
"=O c #AFAFB0",
"-O c #65A858",
";O c #9DCB6E",
":O c #DCDCDB",
">O c #FEFEFD",
",O c #ADCCB1",
"<O c #5FA351",
"1O c #92C094",
"2O c #31835A",
"3O c #585859",
"4O c None",
"5O c None",
"6O c #EFEFEF",
"7O c #48973C",
"8O c #96A697",
"9O c #DEDFDF",
"0O c None",
"qO c #529F3A",
"wO c #ABD47D",
"eO c #E0E0E1",
"rO c #40933A",
"tO c #4A9843",
"yO c None",
"uO c None",
"iO c #DADBDA",
"pO c #8DBE7F",
"aO c #B0BBB6",
"sO c #B3C0B6",
"dO c #2D8157",
"fO c #ABCBB0",
"gO c #7EBA40",
"hO c #454546",
"jO c #DCDCDC",
"kO c #FEFEFE",
"lO c #49973B",
"zO c #EDEEEE",
"xO c #2F8839",
"cO c #69686A",
"vO c #93BD6A",
"bO c #ABABAC",
"nO c #9FC375",
"mO c #B0B7B3",
"MO c #31893B",
"NO c None",
"BO c #42924B",
"VO c #70A585",
"CO c #3A8D4D",
"ZO c #EFEFF0",
"AO c #DEDFE0",
"SO c None",
"DO c #459548",
"FO c #EDF5E9",
"GO c #989899",
"HO c #565557",
"JO c #459348",
"KO c #85A388",
"LO c #F6F8F6",
"PO c #97C19F",
"IO c #A3AEA0",
"UO c #3C903B",
"YO c #509E3C",
"TO c #67AC3C",
"RO c #7AB83E",
"EO c #92B676",
"WO c #6AAF3D",
"QO c #1F7C3A",
"!O c #ADB8A2",
"~O c #FAFAFA",
"^O c #858586",
"/O c #267F3A",
"(O c #85AF93",
")O c #A7A7A8",
"_O c #C2C7BF",
"`O c #B9BDB8",
"'O c #ACB3AF",
"]O c #A4B5AD",
"[O c #EBEBEC",
"{O c #90B497",
"}O c #EDF5EA",
"|O c #5AA43B",
" + c #68AE3C",
".+ c #4C9A3B",
"X+ c #63AA3B",
"o+ c #EFF6EC",
"O+ c #B5D6A9",
"++ c #2C8539",
"@+ c #539F3D",
"#+ c #66A55F",
"$+ c #D6D7D7",
"%+ c #F3F8F0",
"&+ c #64A93F",
"*+ c #C5DDC3",
"=+ c #9BBE7D",
"-+ c #8EBE94",
";+ c #F1F5ED",
":+ c #616062",
">+ c #9CA9A0",
",+ c #81AE86",
"<+ c #B6D88F",
"1+ c #A8CCA1",
"2+ c #65A93D",
"3+ c #E7E7E8",
"4+ c #197748",
"5+ c #9F9F9F",
"6+ c #83AE93",
"7+ c #5CA34E",
"8+ c None",
"9+ c #4E4D4F",
"0+ c #247E4E",
"q+ c #74B25B",
"w+ c #F4F5F5",
"e+ c #90C354",
"r+ c #64AC3B",
"t+ c #287E50",
"y+ c #ACCFB2",
"u+ c #63AA3B",
"i+ c #49993A",
"p+ c #3F913B",
"a+ c #76B63D",
"s+ c #519E3D",
"d+ c #409149",
"f+ c #E4EBE5",
"g+ c #CCD0CE",
"h+ c #49993D",
"j+ c #5FA83B",
"k+ c #E2EFDC",
"l+ c #E6ECE7",
"z+ c #F2F2F2",
"x+ c #BFC0C0",
"c+ c #C0C6C0",
"v+ c #B8C0B7",
"b+ c #3A8E44",
"n+ c #E0E9E2",
"m+ c #288338",
"M+ c #32835A",
"N+ c #56A13F",
"B+ c #E2EAE4",
"V+ c #30873A",
"C+ c #B4BFA9",
"Z+ c #ACADAD",
"A+ c #86C143",
"S+ c #68A770",
"D+ c None",
"F+ c #4B9A3D",
"G+ c #4E9D3C",
"H+ c None",
"J+ c #F0F1F1",
"K+ c #96C06D",
"L+ c #BDBFBF",
/* pixels */
"                  GXvo:...h+4 F+WoG+YOr.Qo8+5O                  ",
"              g D Z.RXKo$.~.CX#+9.t.rXmo6os d [ 5O              ",
"            *.SXDOH z ,+R.PX|o'oc+v+(.` tX; &+/.&o8o            ",
"        joH+uXm.C {O: iOS.F kO|X|XkO;X=o.ow -oUoTO#OSOh         ",
"      jox JOT.DXsO(XF IX>O>OkO|X|XkO9 9 kOF jO:X{ qXj+NOh       ",
"      H+BO$ (OO (okO|X*X#oEX;+;X;XS.e Xo%.|X|Xz+6X[XOO%O9o      ",
"    *.Do<X6+g+F |X|X|X%owO<+CohX6.8Xy.H.QX|X|X|XF ).=+,ou So    ",
"  g tOsoVOO F |X|X|X|XE.;OW.!oHXHXJ+)Ow.6O|X|X|X|XF _OK+a++.5O  ",
"  E CO- @.(o|X|X|X|X|X0oL.1XFX*O*OJ+]oQ 6O|X|X|X|X|Xz+C+N = yO  ",
"GXi sX#X9OkO|X|X|X|X|X0oFo O*O*O*O*Ox+N.6O|X|X|X|X|XkO:Oh.]X@+~ ",
"voxod.vXF |X|X|X|X|X|X{._.* *O*O*O*Oi.UX6O|X|X|X|X|X|XF %XbXWOf ",
"v B <o}.|XkO7 %+o+}OFOk+!XC.J+*O*OJ+5+lXko3+3+j 6O~OkO|X.onORO0O",
"4.0+} =o|XqoLOc ' O+|.[oq+ XFX*O*OJ+loQ.:ou.jXZ+&OooF |Xb ZXA+s+",
"&.+ ]O;X|XqoF ;Xbo~Xf.k.wopO.O*O*Op jX>X0 ^O$+zOJ+*O;X|X;XMo1 ;o",
"5 2OKX9 |Xgo) eXTow+R 1+7+-OZ *O*O> dX9+GOZo*O*O*O*ONo|X9 X., r+",
"J M+Ho|X|XfX7oTohX(o*ORooX+O+o*O*OxX3O=Or *O*O*O*O+X*+|X|Xg.)o +",
"1odO<.|X|X^ nXioHX*O*O*O0.7.o.$OB..Xeor *O*O*OJ+_ hoA |X|X1.)o9X",
"QOS aO9 |XXO>.G.Yol+*O*O*Oj.L n+`on K *O*O*O. YoX Lo1O|X9 X., z.",
"m+4+AoNo|X2Xd+YX`XS+fOV.J+*Of+TXM =.*OJ+l+,O^Xb+JXJX-+|X;XMo1 |O",
"/X/ $o[.kOy+m k k k G q x.*O*O< {X*O*OB+PO5Xk k k k 3.kOj ZXP..+",
"@o`.e.5.qoLOI I I I I I *O*O*O*O*O*O*O*OI I I I I I LOqocoy BXmX",
"8+] t+P p.;X;X;X;X;X;XEo*OGo(Xro^.(X3X*ONo;X;X;X;X;X;X*OiXe+2+4X",
"GXxOIol 5.LXw+w+w+w+w+ZOXo)X> n OX9O/o}Xp w+w+w+w+w+w+#.AXgOlOkX",
"  | MXD. .zX*O*O*O*O*O=.w.}X8 XXdo)OXocO`o*O*O*O*O*O=.!O$XX+=X  ",
"  GX7X-X4omO3Xp p p p _Xt HO0 >X>XhOHOtoeOp p p p Gob.vOJ.rOkX  ",
"    BooOW ~o6 =.[O[O[OI.:+>X>X>X>X>X>XlX2o[O[O[ONX`O,.noYOpX    ",
"      gX/OVX'.'OM aXGo`oXoa.a.a.a.a.a.bO% GoaXpoY EO2 ( 5o      ",
"      h 2.yXF.{oPoVoAOq.q.q.q.q.q.q.q.q.q.AO,XU l.cXqOO.h       ",
"        h 4O++@O@ T >+L+o M s.% % s.>o'X^oIOJo_ou+7Oc.h         ",
"            So# 0X!.zoU.KO8O].V 3o3 a *oM.@XA.yofoWX            ",
"              5OuOMOK.V+v.&X& ;.Oo<O8.N+Y.i+wX=X~               ",
"                  5Of D+}ouo! UO op+-.n.ao4X~                   "
};
